<mxfile host="app.diagrams.net" modified="2024-03-05T05:32:07.281Z" agent="Mozilla/5.0 (Windows NT 10.0; Win64; x64) AppleWebKit/537.36 (KHTML, like Gecko) Chrome/122.0.0.0 Safari/537.36" etag="WkmNfSZHaNScx-CgCcYs" version="24.0.1" type="device">
  <diagram name="Page-1" id="nGUGwbAq-zuzMX0ljmnw">
    <mxGraphModel dx="954" dy="665" grid="1" gridSize="10" guides="1" tooltips="1" connect="1" arrows="1" fold="1" page="1" pageScale="1" pageWidth="850" pageHeight="1100" math="0" shadow="0">
      <root>
        <mxCell id="0" />
        <mxCell id="1" parent="0" />
        <mxCell id="NtqmXox7Fk1DDXxpAHds-93" value="" style="rounded=0;whiteSpace=wrap;html=1;" parent="1" vertex="1">
          <mxGeometry x="720" y="5" width="120" height="235" as="geometry" />
        </mxCell>
        <mxCell id="NtqmXox7Fk1DDXxpAHds-84" value="" style="rounded=0;whiteSpace=wrap;html=1;" parent="1" vertex="1">
          <mxGeometry x="10" y="10" width="670" height="1080" as="geometry" />
        </mxCell>
        <mxCell id="DleMOwhDVylGVQEjeaN0-1" value="" style="pointerEvents=1;verticalLabelPosition=bottom;shadow=0;dashed=0;align=center;html=1;verticalAlign=top;shape=mxgraph.electrical.signal_sources.source;aspect=fixed;points=[[0.5,0,0],[1,0.5,0],[0.5,1,0],[0,0.5,0]];elSignalType=ac;" parent="1" vertex="1">
          <mxGeometry x="750" y="85" width="60" height="60" as="geometry" />
        </mxCell>
        <mxCell id="DleMOwhDVylGVQEjeaN0-2" value="ACDC Converter&lt;div&gt;100v AC to -48v DC&lt;/div&gt;&lt;div&gt;https://amzn.asia/d/3lReE6g&lt;br&gt;&lt;/div&gt;" style="rounded=0;whiteSpace=wrap;html=1;" parent="1" vertex="1">
          <mxGeometry x="30" y="80" width="280" height="320" as="geometry" />
        </mxCell>
        <mxCell id="NtqmXox7Fk1DDXxpAHds-1" value="100v AC" style="text;html=1;align=center;verticalAlign=middle;resizable=0;points=[];autosize=1;strokeColor=none;fillColor=none;" parent="1" vertex="1">
          <mxGeometry x="745" y="50" width="70" height="30" as="geometry" />
        </mxCell>
        <mxCell id="NtqmXox7Fk1DDXxpAHds-2" value="" style="pointerEvents=1;verticalLabelPosition=bottom;shadow=0;dashed=0;align=center;html=1;verticalAlign=top;shape=mxgraph.electrical.signal_sources.signal_ground;" parent="1" vertex="1">
          <mxGeometry x="757.5" y="200" width="45" height="30" as="geometry" />
        </mxCell>
        <mxCell id="NtqmXox7Fk1DDXxpAHds-6" value="GND" style="text;html=1;align=center;verticalAlign=middle;whiteSpace=wrap;rounded=0;" parent="1" vertex="1">
          <mxGeometry x="250" y="155" width="60" height="30" as="geometry" />
        </mxCell>
        <mxCell id="NtqmXox7Fk1DDXxpAHds-7" value="N" style="text;html=1;align=center;verticalAlign=middle;whiteSpace=wrap;rounded=0;" parent="1" vertex="1">
          <mxGeometry x="250" y="120" width="60" height="30" as="geometry" />
        </mxCell>
        <mxCell id="NtqmXox7Fk1DDXxpAHds-10" value="L" style="text;html=1;align=center;verticalAlign=middle;whiteSpace=wrap;rounded=0;" parent="1" vertex="1">
          <mxGeometry x="250" y="90" width="60" height="30" as="geometry" />
        </mxCell>
        <mxCell id="NtqmXox7Fk1DDXxpAHds-12" value="-V" style="text;html=1;align=center;verticalAlign=middle;whiteSpace=wrap;rounded=0;" parent="1" vertex="1">
          <mxGeometry x="250" y="190" width="60" height="30" as="geometry" />
        </mxCell>
        <mxCell id="NtqmXox7Fk1DDXxpAHds-13" value="+V" style="text;html=1;align=center;verticalAlign=middle;whiteSpace=wrap;rounded=0;" parent="1" vertex="1">
          <mxGeometry x="250" y="280" width="60" height="30" as="geometry" />
        </mxCell>
        <mxCell id="NtqmXox7Fk1DDXxpAHds-14" value="" style="endArrow=none;html=1;rounded=0;entryX=1.018;entryY=0.405;entryDx=0;entryDy=0;entryPerimeter=0;" parent="1" edge="1">
          <mxGeometry width="50" height="50" relative="1" as="geometry">
            <mxPoint x="370" y="290.29" as="sourcePoint" />
            <mxPoint x="309.99999999999994" y="290" as="targetPoint" />
          </mxGeometry>
        </mxCell>
        <mxCell id="NtqmXox7Fk1DDXxpAHds-17" value="" style="endArrow=none;html=1;rounded=0;entryDx=0;entryDy=0;exitDx=0;exitDy=0;exitPerimeter=0;entryX=0.54;entryY=0.174;entryPerimeter=0;" parent="1" edge="1">
          <mxGeometry width="50" height="50" relative="1" as="geometry">
            <mxPoint x="340" y="169.99999999999994" as="sourcePoint" />
            <mxPoint x="340" y="169.99999999999994" as="targetPoint" />
            <Array as="points" />
          </mxGeometry>
        </mxCell>
        <mxCell id="NtqmXox7Fk1DDXxpAHds-26" value="" style="endArrow=none;html=1;rounded=0;exitX=0.52;exitY=0.731;exitDx=0;exitDy=0;exitPerimeter=0;" parent="1" edge="1">
          <mxGeometry width="50" height="50" relative="1" as="geometry">
            <mxPoint x="340" y="169.99999999999994" as="sourcePoint" />
            <mxPoint x="340" y="170" as="targetPoint" />
          </mxGeometry>
        </mxCell>
        <mxCell id="NtqmXox7Fk1DDXxpAHds-28" value="" style="endArrow=none;html=1;rounded=0;entryX=1;entryY=0.5;entryDx=0;entryDy=0;" parent="1" source="NtqmXox7Fk1DDXxpAHds-70" target="NtqmXox7Fk1DDXxpAHds-6" edge="1">
          <mxGeometry width="50" height="50" relative="1" as="geometry">
            <mxPoint x="340" y="290" as="sourcePoint" />
            <mxPoint x="340" y="169.99999999999994" as="targetPoint" />
            <Array as="points">
              <mxPoint x="340" y="170" />
            </Array>
          </mxGeometry>
        </mxCell>
        <mxCell id="NtqmXox7Fk1DDXxpAHds-30" value="" style="endArrow=none;html=1;rounded=0;exitX=1;exitY=0.5;exitDx=0;exitDy=0;" parent="1" source="NtqmXox7Fk1DDXxpAHds-37" edge="1">
          <mxGeometry width="50" height="50" relative="1" as="geometry">
            <mxPoint x="370" y="520" as="sourcePoint" />
            <mxPoint x="370" y="290" as="targetPoint" />
            <Array as="points">
              <mxPoint x="370" y="515" />
            </Array>
          </mxGeometry>
        </mxCell>
        <mxCell id="NtqmXox7Fk1DDXxpAHds-99" value="0v" style="edgeLabel;html=1;align=center;verticalAlign=middle;resizable=0;points=[];" parent="NtqmXox7Fk1DDXxpAHds-30" vertex="1" connectable="0">
          <mxGeometry x="0.785" relative="1" as="geometry">
            <mxPoint y="79" as="offset" />
          </mxGeometry>
        </mxCell>
        <mxCell id="NtqmXox7Fk1DDXxpAHds-31" value="" style="endArrow=none;html=1;rounded=0;entryX=1;entryY=0.5;entryDx=0;entryDy=0;exitX=1;exitY=0.8;exitDx=0;exitDy=0;" parent="1" source="3KfbxpIJTLIYvLziHxxJ-1" target="NtqmXox7Fk1DDXxpAHds-12" edge="1">
          <mxGeometry width="50" height="50" relative="1" as="geometry">
            <mxPoint x="400" y="610" as="sourcePoint" />
            <mxPoint x="380" y="210" as="targetPoint" />
            <Array as="points">
              <mxPoint x="445" y="1000" />
              <mxPoint x="390" y="1000" />
              <mxPoint x="390" y="545" />
              <mxPoint x="390" y="205" />
            </Array>
          </mxGeometry>
        </mxCell>
        <mxCell id="NtqmXox7Fk1DDXxpAHds-98" value="-48v" style="edgeLabel;html=1;align=center;verticalAlign=middle;resizable=0;points=[];" parent="NtqmXox7Fk1DDXxpAHds-31" vertex="1" connectable="0">
          <mxGeometry x="0.6247" y="-2" relative="1" as="geometry">
            <mxPoint y="86" as="offset" />
          </mxGeometry>
        </mxCell>
        <mxCell id="NtqmXox7Fk1DDXxpAHds-33" value="EDFA&lt;div&gt;module&lt;/div&gt;" style="rounded=0;whiteSpace=wrap;html=1;" parent="1" vertex="1">
          <mxGeometry x="30" y="480" width="280" height="170" as="geometry" />
        </mxCell>
        <mxCell id="NtqmXox7Fk1DDXxpAHds-37" value="0v" style="text;html=1;align=center;verticalAlign=middle;whiteSpace=wrap;rounded=0;" parent="1" vertex="1">
          <mxGeometry x="250" y="500" width="60" height="30" as="geometry" />
        </mxCell>
        <mxCell id="NtqmXox7Fk1DDXxpAHds-38" value="-48v" style="text;html=1;align=center;verticalAlign=middle;whiteSpace=wrap;rounded=0;" parent="1" vertex="1">
          <mxGeometry x="250" y="530" width="60" height="30" as="geometry" />
        </mxCell>
        <mxCell id="NtqmXox7Fk1DDXxpAHds-40" value="ACDC Converter&lt;div&gt;100v AC to 5v DC&lt;/div&gt;" style="rounded=0;whiteSpace=wrap;html=1;" parent="1" vertex="1">
          <mxGeometry x="400" y="300" width="120" height="60" as="geometry" />
        </mxCell>
        <mxCell id="NtqmXox7Fk1DDXxpAHds-42" value="" style="endArrow=none;html=1;rounded=0;exitX=0.663;exitY=0.017;exitDx=0;exitDy=0;exitPerimeter=0;entryX=0.388;entryY=0.6;entryDx=0;entryDy=0;entryPerimeter=0;" parent="1" source="NtqmXox7Fk1DDXxpAHds-40" target="NtqmXox7Fk1DDXxpAHds-76" edge="1">
          <mxGeometry width="50" height="50" relative="1" as="geometry">
            <mxPoint x="540.0000000000001" y="275" as="sourcePoint" />
            <mxPoint x="540" y="135" as="targetPoint" />
          </mxGeometry>
        </mxCell>
        <mxCell id="NtqmXox7Fk1DDXxpAHds-46" value="" style="endArrow=none;html=1;rounded=0;entryX=0.5;entryY=1;entryDx=0;entryDy=0;exitX=0.991;exitY=0.385;exitDx=0;exitDy=0;exitPerimeter=0;" parent="1" source="NtqmXox7Fk1DDXxpAHds-48" target="NtqmXox7Fk1DDXxpAHds-40" edge="1">
          <mxGeometry width="50" height="50" relative="1" as="geometry">
            <mxPoint x="490" y="790" as="sourcePoint" />
            <mxPoint x="450" y="560" as="targetPoint" />
            <Array as="points">
              <mxPoint x="460" y="820" />
            </Array>
          </mxGeometry>
        </mxCell>
        <mxCell id="NtqmXox7Fk1DDXxpAHds-52" value="5v +" style="edgeLabel;html=1;align=center;verticalAlign=middle;resizable=0;points=[];" parent="NtqmXox7Fk1DDXxpAHds-46" vertex="1" connectable="0">
          <mxGeometry x="0.7585" y="3" relative="1" as="geometry">
            <mxPoint x="3" y="-32" as="offset" />
          </mxGeometry>
        </mxCell>
        <mxCell id="NtqmXox7Fk1DDXxpAHds-47" value="" style="endArrow=none;html=1;rounded=0;entryX=0.683;entryY=0.975;entryDx=0;entryDy=0;entryPerimeter=0;exitX=1;exitY=0.5;exitDx=0;exitDy=0;" parent="1" source="NtqmXox7Fk1DDXxpAHds-48" target="NtqmXox7Fk1DDXxpAHds-40" edge="1">
          <mxGeometry width="50" height="50" relative="1" as="geometry">
            <mxPoint x="542" y="800" as="sourcePoint" />
            <mxPoint x="450" y="560" as="targetPoint" />
            <Array as="points">
              <mxPoint x="482" y="840" />
            </Array>
          </mxGeometry>
        </mxCell>
        <mxCell id="NtqmXox7Fk1DDXxpAHds-53" value="0v" style="edgeLabel;html=1;align=center;verticalAlign=middle;resizable=0;points=[];" parent="NtqmXox7Fk1DDXxpAHds-47" vertex="1" connectable="0">
          <mxGeometry x="0.7804" y="-1" relative="1" as="geometry">
            <mxPoint x="-3" y="-29" as="offset" />
          </mxGeometry>
        </mxCell>
        <mxCell id="NtqmXox7Fk1DDXxpAHds-48" value="Raspberry Pi 3 model B" style="rounded=0;whiteSpace=wrap;html=1;" parent="1" vertex="1">
          <mxGeometry x="40" y="760" width="280" height="160" as="geometry" />
        </mxCell>
        <mxCell id="NtqmXox7Fk1DDXxpAHds-54" value="power&lt;div&gt;&amp;nbsp;micro USB&lt;/div&gt;" style="text;html=1;align=center;verticalAlign=middle;whiteSpace=wrap;rounded=0;" parent="1" vertex="1">
          <mxGeometry x="390" y="840" width="100" height="30" as="geometry" />
        </mxCell>
        <mxCell id="NtqmXox7Fk1DDXxpAHds-58" value="" style="endArrow=none;html=1;rounded=0;entryX=0.704;entryY=0.995;entryDx=0;entryDy=0;entryPerimeter=0;exitX=0.675;exitY=0.008;exitDx=0;exitDy=0;exitPerimeter=0;" parent="1" edge="1">
          <mxGeometry width="50" height="50" relative="1" as="geometry">
            <mxPoint x="201.88" y="762.13" as="sourcePoint" />
            <mxPoint x="200" y="650.0000000000001" as="targetPoint" />
          </mxGeometry>
        </mxCell>
        <mxCell id="NtqmXox7Fk1DDXxpAHds-59" value="&lt;div&gt;data&lt;/div&gt;RS232c" style="edgeLabel;html=1;align=center;verticalAlign=middle;resizable=0;points=[];" parent="NtqmXox7Fk1DDXxpAHds-58" vertex="1" connectable="0">
          <mxGeometry x="0.3111" y="-3" relative="1" as="geometry">
            <mxPoint as="offset" />
          </mxGeometry>
        </mxCell>
        <mxCell id="NtqmXox7Fk1DDXxpAHds-60" value="LCD Display&lt;div&gt;https://amzn.asia/d/6WWuFAE&lt;br&gt;&lt;/div&gt;" style="rounded=0;whiteSpace=wrap;html=1;" parent="1" vertex="1">
          <mxGeometry x="40" y="960" width="280" height="120" as="geometry" />
        </mxCell>
        <mxCell id="NtqmXox7Fk1DDXxpAHds-61" value="" style="endArrow=none;html=1;rounded=0;exitX=0.425;exitY=0.003;exitDx=0;exitDy=0;exitPerimeter=0;" parent="1" edge="1">
          <mxGeometry width="50" height="50" relative="1" as="geometry">
            <mxPoint x="200" y="960.3599999999999" as="sourcePoint" />
            <mxPoint x="201" y="920" as="targetPoint" />
          </mxGeometry>
        </mxCell>
        <mxCell id="NtqmXox7Fk1DDXxpAHds-62" value="power&amp;amp;data&lt;div&gt;micro USB&lt;/div&gt;" style="edgeLabel;html=1;align=center;verticalAlign=middle;resizable=0;points=[];" parent="NtqmXox7Fk1DDXxpAHds-61" vertex="1" connectable="0">
          <mxGeometry x="0.0405" y="-1" relative="1" as="geometry">
            <mxPoint as="offset" />
          </mxGeometry>
        </mxCell>
        <mxCell id="NtqmXox7Fk1DDXxpAHds-68" value="" style="endArrow=none;html=1;rounded=0;entryDx=0;entryDy=0;exitX=0.5;exitY=0;exitDx=0;exitDy=0;exitPerimeter=0;entryPerimeter=0;" parent="1" source="NtqmXox7Fk1DDXxpAHds-2" edge="1">
          <mxGeometry width="50" height="50" relative="1" as="geometry">
            <mxPoint x="828" y="160" as="sourcePoint" />
            <mxPoint x="340" y="169.99999999999994" as="targetPoint" />
            <Array as="points">
              <mxPoint x="780" y="170" />
              <mxPoint x="720" y="170" />
            </Array>
          </mxGeometry>
        </mxCell>
        <mxCell id="NtqmXox7Fk1DDXxpAHds-69" value="" style="shape=waypoint;sketch=0;fillStyle=solid;size=6;pointerEvents=1;points=[];fillColor=none;resizable=0;rotatable=0;perimeter=centerPerimeter;snapToPoint=1;" parent="1" vertex="1">
          <mxGeometry x="330" y="160" width="20" height="20" as="geometry" />
        </mxCell>
        <mxCell id="NtqmXox7Fk1DDXxpAHds-71" value="" style="endArrow=none;html=1;rounded=0;" parent="1" target="NtqmXox7Fk1DDXxpAHds-70" edge="1">
          <mxGeometry width="50" height="50" relative="1" as="geometry">
            <mxPoint x="340" y="290" as="sourcePoint" />
            <mxPoint x="340" y="169.99999999999994" as="targetPoint" />
          </mxGeometry>
        </mxCell>
        <mxCell id="NtqmXox7Fk1DDXxpAHds-70" value="" style="shape=waypoint;sketch=0;fillStyle=solid;size=6;pointerEvents=1;points=[];fillColor=none;resizable=0;rotatable=0;perimeter=centerPerimeter;snapToPoint=1;" parent="1" vertex="1">
          <mxGeometry x="330" y="280" width="20" height="20" as="geometry" />
        </mxCell>
        <mxCell id="NtqmXox7Fk1DDXxpAHds-75" value="" style="endArrow=none;html=1;rounded=0;entryDx=0;entryDy=0;entryPerimeter=0;exitX=0.997;exitY=0.061;exitDx=0;exitDy=0;exitPerimeter=0;" parent="1" source="DleMOwhDVylGVQEjeaN0-2" target="NtqmXox7Fk1DDXxpAHds-72" edge="1">
          <mxGeometry width="50" height="50" relative="1" as="geometry">
            <mxPoint x="309" y="100" as="sourcePoint" />
            <mxPoint x="755" y="80" as="targetPoint" />
            <Array as="points" />
          </mxGeometry>
        </mxCell>
        <mxCell id="NtqmXox7Fk1DDXxpAHds-77" value="" style="endArrow=none;html=1;rounded=0;entryDx=0;entryDy=0;entryPerimeter=0;exitX=1;exitY=0.5;exitDx=0;exitDy=0;" parent="1" source="NtqmXox7Fk1DDXxpAHds-7" target="NtqmXox7Fk1DDXxpAHds-76" edge="1">
          <mxGeometry width="50" height="50" relative="1" as="geometry">
            <mxPoint x="310" y="135" as="sourcePoint" />
            <mxPoint x="815" y="80" as="targetPoint" />
            <Array as="points" />
          </mxGeometry>
        </mxCell>
        <mxCell id="NtqmXox7Fk1DDXxpAHds-76" value="" style="shape=waypoint;sketch=0;fillStyle=solid;size=6;pointerEvents=1;points=[];fillColor=none;resizable=0;rotatable=0;perimeter=centerPerimeter;snapToPoint=1;" parent="1" vertex="1">
          <mxGeometry x="470" y="125" width="20" height="20" as="geometry" />
        </mxCell>
        <mxCell id="NtqmXox7Fk1DDXxpAHds-78" value="" style="endArrow=none;html=1;rounded=0;exitDx=0;exitDy=0;" parent="1" source="NtqmXox7Fk1DDXxpAHds-72" edge="1">
          <mxGeometry width="50" height="50" relative="1" as="geometry">
            <mxPoint x="530" y="210" as="sourcePoint" />
            <mxPoint x="520" y="100" as="targetPoint" />
          </mxGeometry>
        </mxCell>
        <mxCell id="NtqmXox7Fk1DDXxpAHds-79" value="" style="endArrow=none;html=1;rounded=0;exitX=0.5;exitY=0;exitDx=0;exitDy=0;" parent="1" source="NtqmXox7Fk1DDXxpAHds-40" target="NtqmXox7Fk1DDXxpAHds-72" edge="1">
          <mxGeometry width="50" height="50" relative="1" as="geometry">
            <mxPoint x="520" y="300" as="sourcePoint" />
            <mxPoint x="520" y="100" as="targetPoint" />
          </mxGeometry>
        </mxCell>
        <mxCell id="NtqmXox7Fk1DDXxpAHds-72" value="" style="shape=waypoint;sketch=0;fillStyle=solid;size=6;pointerEvents=1;points=[];fillColor=none;resizable=0;rotatable=0;perimeter=centerPerimeter;snapToPoint=1;" parent="1" vertex="1">
          <mxGeometry x="450" y="90" width="20" height="20" as="geometry" />
        </mxCell>
        <mxCell id="NtqmXox7Fk1DDXxpAHds-82" value="&lt;font style=&quot;font-size: 14px;&quot;&gt;outlet&lt;/font&gt;" style="text;html=1;align=center;verticalAlign=middle;whiteSpace=wrap;rounded=0;" parent="1" vertex="1">
          <mxGeometry x="745" y="10" width="60" height="30" as="geometry" />
        </mxCell>
        <mxCell id="NtqmXox7Fk1DDXxpAHds-83" value="&lt;font style=&quot;font-size: 20px;&quot;&gt;EDFA&amp;nbsp;&lt;span style=&quot;background-color: initial;&quot;&gt;System&lt;/span&gt;&lt;/font&gt;" style="text;html=1;align=center;verticalAlign=middle;whiteSpace=wrap;rounded=0;" parent="1" vertex="1">
          <mxGeometry x="260" y="20" width="160" height="30" as="geometry" />
        </mxCell>
        <mxCell id="NtqmXox7Fk1DDXxpAHds-86" value="" style="shape=filledEdge;curved=0;rounded=0;fixDash=1;endArrow=none;strokeWidth=10;fillColor=#ffffff;edgeStyle=orthogonalEdgeStyle;html=1;exitX=0.75;exitY=1;exitDx=0;exitDy=0;" parent="1" source="NtqmXox7Fk1DDXxpAHds-33" edge="1">
          <mxGeometry width="60" height="40" relative="1" as="geometry">
            <mxPoint x="600" y="610" as="sourcePoint" />
            <mxPoint x="560" y="1090" as="targetPoint" />
            <Array as="points">
              <mxPoint x="240" y="730" />
            </Array>
          </mxGeometry>
        </mxCell>
        <mxCell id="NtqmXox7Fk1DDXxpAHds-88" value="optical input&amp;nbsp;&lt;div&gt;x8&lt;/div&gt;" style="text;html=1;align=center;verticalAlign=middle;whiteSpace=wrap;rounded=0;" parent="1" vertex="1">
          <mxGeometry x="490" y="1050" width="60" height="30" as="geometry" />
        </mxCell>
        <mxCell id="NtqmXox7Fk1DDXxpAHds-89" value="optical&lt;div&gt;output&lt;/div&gt;&lt;div&gt;x8&lt;/div&gt;" style="text;html=1;align=center;verticalAlign=middle;whiteSpace=wrap;rounded=0;" parent="1" vertex="1">
          <mxGeometry x="580" y="1050" width="60" height="30" as="geometry" />
        </mxCell>
        <mxCell id="NtqmXox7Fk1DDXxpAHds-90" value="" style="shape=filledEdge;curved=0;rounded=0;fixDash=1;endArrow=none;strokeWidth=10;fillColor=#ffffff;edgeStyle=orthogonalEdgeStyle;html=1;entryX=0.786;entryY=1;entryDx=0;entryDy=0;entryPerimeter=0;" parent="1" target="NtqmXox7Fk1DDXxpAHds-33" edge="1">
          <mxGeometry width="60" height="40" relative="1" as="geometry">
            <mxPoint x="570" y="1090" as="sourcePoint" />
            <mxPoint x="490" y="700" as="targetPoint" />
            <Array as="points">
              <mxPoint x="570" y="720" />
              <mxPoint x="250" y="720" />
            </Array>
          </mxGeometry>
        </mxCell>
        <mxCell id="NtqmXox7Fk1DDXxpAHds-94" value="" style="endArrow=none;html=1;rounded=0;exitX=0.358;exitY=0.57;exitDx=0;exitDy=0;exitPerimeter=0;entryX=0.5;entryY=1;entryDx=0;entryDy=0;entryPerimeter=0;" parent="1" source="NtqmXox7Fk1DDXxpAHds-76" target="DleMOwhDVylGVQEjeaN0-1" edge="1">
          <mxGeometry width="50" height="50" relative="1" as="geometry">
            <mxPoint x="620" y="70" as="sourcePoint" />
            <mxPoint x="670" y="20" as="targetPoint" />
            <Array as="points">
              <mxPoint x="740" y="135" />
              <mxPoint x="740" y="145" />
            </Array>
          </mxGeometry>
        </mxCell>
        <mxCell id="NtqmXox7Fk1DDXxpAHds-95" value="" style="endArrow=none;html=1;rounded=0;exitX=0.418;exitY=0.668;exitDx=0;exitDy=0;exitPerimeter=0;entryX=0.5;entryY=0;entryDx=0;entryDy=0;entryPerimeter=0;" parent="1" source="NtqmXox7Fk1DDXxpAHds-72" target="DleMOwhDVylGVQEjeaN0-1" edge="1">
          <mxGeometry width="50" height="50" relative="1" as="geometry">
            <mxPoint x="620" y="70" as="sourcePoint" />
            <mxPoint x="670" y="20" as="targetPoint" />
            <Array as="points">
              <mxPoint x="740" y="100" />
              <mxPoint x="740" y="85" />
            </Array>
          </mxGeometry>
        </mxCell>
        <mxCell id="NtqmXox7Fk1DDXxpAHds-96" value="" style="verticalLabelPosition=bottom;verticalAlign=top;html=1;shape=mxgraph.basic.wave2;dy=0.61;rotation=89;" parent="1" vertex="1">
          <mxGeometry x="650" y="125" width="100" height="10" as="geometry" />
        </mxCell>
        <mxCell id="3KfbxpIJTLIYvLziHxxJ-1" value="" style="html=1;shape=mxgraph.electrical.electro-mechanical.singleSwitch;aspect=fixed;elSwitchState=off;" vertex="1" parent="1">
          <mxGeometry x="370" y="1060" width="75" height="20" as="geometry" />
        </mxCell>
        <mxCell id="3KfbxpIJTLIYvLziHxxJ-2" value="" style="endArrow=none;html=1;rounded=0;entryX=1;entryY=0.5;entryDx=0;entryDy=0;exitX=0;exitY=0.8;exitDx=0;exitDy=0;" edge="1" parent="1" source="3KfbxpIJTLIYvLziHxxJ-1" target="NtqmXox7Fk1DDXxpAHds-38">
          <mxGeometry width="50" height="50" relative="1" as="geometry">
            <mxPoint x="400" y="810" as="sourcePoint" />
            <mxPoint x="450" y="760" as="targetPoint" />
            <Array as="points">
              <mxPoint x="370" y="545" />
            </Array>
          </mxGeometry>
        </mxCell>
        <mxCell id="3KfbxpIJTLIYvLziHxxJ-3" value="switch" style="text;html=1;align=center;verticalAlign=middle;whiteSpace=wrap;rounded=0;" vertex="1" parent="1">
          <mxGeometry x="382.5" y="1030" width="60" height="30" as="geometry" />
        </mxCell>
        <mxCell id="3KfbxpIJTLIYvLziHxxJ-4" value="" style="endArrow=none;dashed=1;html=1;rounded=0;exitX=-0.004;exitY=0.862;exitDx=0;exitDy=0;exitPerimeter=0;entryX=1;entryY=0.865;entryDx=0;entryDy=0;entryPerimeter=0;" edge="1" parent="1" source="NtqmXox7Fk1DDXxpAHds-84" target="NtqmXox7Fk1DDXxpAHds-84">
          <mxGeometry width="50" height="50" relative="1" as="geometry">
            <mxPoint x="400" y="1050" as="sourcePoint" />
            <mxPoint x="450" y="1000" as="targetPoint" />
          </mxGeometry>
        </mxCell>
        <mxCell id="3KfbxpIJTLIYvLziHxxJ-5" value="interface" style="text;html=1;align=center;verticalAlign=middle;whiteSpace=wrap;rounded=0;" vertex="1" parent="1">
          <mxGeometry x="610" y="960" width="60" height="30" as="geometry" />
        </mxCell>
        <mxCell id="3KfbxpIJTLIYvLziHxxJ-7" value="" style="endArrow=none;dashed=1;html=1;rounded=0;entryX=1.003;entryY=0.391;entryDx=0;entryDy=0;entryPerimeter=0;" edge="1" parent="1" target="NtqmXox7Fk1DDXxpAHds-84">
          <mxGeometry width="50" height="50" relative="1" as="geometry">
            <mxPoint x="10" y="432" as="sourcePoint" />
            <mxPoint x="450" y="460" as="targetPoint" />
          </mxGeometry>
        </mxCell>
        <mxCell id="3KfbxpIJTLIYvLziHxxJ-8" value="controller" style="text;html=1;align=center;verticalAlign=middle;whiteSpace=wrap;rounded=0;" vertex="1" parent="1">
          <mxGeometry x="610" y="440" width="60" height="30" as="geometry" />
        </mxCell>
        <mxCell id="3KfbxpIJTLIYvLziHxxJ-9" value="Power" style="text;html=1;align=center;verticalAlign=middle;whiteSpace=wrap;rounded=0;" vertex="1" parent="1">
          <mxGeometry x="610" y="20" width="60" height="30" as="geometry" />
        </mxCell>
      </root>
    </mxGraphModel>
  </diagram>
</mxfile>
